<svg xmlns="http://www.w3.org/2000/svg" xmlns:xlink="http://www.w3.org/1999/xlink" width="310px" height="285px" viewBox="0 0 310 285" version="1.1">
<g fill="#ffffff">
<polygon id="Shape" points="110.7 132.6 110.7 85 108.1 85 108.1 134.6"></polygon>
<rect id="Rectangle-path" x="119.1" y="95.8" width="2.6" height="15.5"></rect>
<polygon id="Shape" points="132.7 115.7 132.7 85 130.1 85 130.1 117.7"></polygon>
<path d="M92.8,88 L105.5,97.7 L105.5,94.4 L93.6,85.3 C93.1,84.9 92.4,84.9 92,85.3 L77.9,97.1 L77.9,85 L75.3,85 L75.3,160 L77.7,158.2 C77.8,158.1 77.9,158.1 77.9,158.1 L77.9,111.3 L105.6,111.3 L105.6,108.7 L77.9,108.7 L77.9,100.6 L92.8,88 Z" id="Shape"></path>
<path d="M89.6,209.8 L89.6,196.4 C89.6,190.2 84.6,185.1 78.3,185.1 C72.1,185.1 67,190.1 67,196.4 L67,209.8 L69.7,209.8 L69.7,196.4 C69.7,191.7 73.5,187.8 78.3,187.8 C83.1,187.8 86.9,191.6 86.9,196.4 L86.9,209.8 L89.6,209.8 Z" id="Shape"></path>
<path d="M131.7,190.3 L131.7,158.1 C131.7,149 123.8,144.6 120.4,143.2 L120.1,143.1 L119.6,143.1 L119.3,143.2 C115.9,144.6 108,149 108,158.1 L108,209.8 L110.7,209.8 L110.7,158.1 C110.7,151 116.7,147.3 119.8,145.9 C122.9,147.3 128.9,151 128.9,158.1 L128.9,190.3 L131.7,190.3 Z" id="Shape"></path>
<polygon id="Shape" points="91 133.6 91 156.3 93.6 154.3 93.6 133.6"></polygon>
<path d="M132.8,61.9 L144.6,61.9 C144.6,61.5 144.5,61.2 144.5,60.8 C144.5,60.8 144.5,60.8 144.5,60.7 C144.5,60.7 144.5,60.6 144.5,60.6 C144.5,60.1 144.6,59.6 144.6,59.2 L132.8,59.2 L132.8,61.9 Z" id="Shape"></path>
<path d="M146.4,66.8 C146.1,66.4 145.9,66 145.7,65.6 L141,69.2 L141,72.9 L147.4,68 C147.1,67.7 146.9,67.4 146.6,67.1 C146.6,67 146.5,66.9 146.4,66.8 Z" id="Shape"></path>
<path d="M141.1,52 L145.9,55.7 C146.1,55.3 146.3,55 146.6,54.6 C146.7,54.4 146.9,54.2 147,54.1 C147.2,53.8 147.4,53.6 147.7,53.4 L141.1,48.3 L141.1,52 L141.1,52 Z" id="Shape"></path>
<path d="M105.5,183.1 L79.3,163 C79,162.8 78.7,162.7 78.4,162.7 C78.1,162.7 77.8,162.8 77.5,163 L48.5,185.1 L48.5,185.2 L48.5,188.4 L48.5,209.8 L51.1,209.8 L51.1,186.4 L78.3,165.7 L105.3,186.3 L105.3,183.1 L105.5,183.1 Z" id="Shape"></path>
<path d="M119.5,68.7 L106.4,78.7 L106.4,82.4 L120.4,71.7 L134.4,82.4 L134.4,78.7 L121.3,68.7 C120.7,68.3 120,68.3 119.5,68.7 Z" id="Shape"></path>
<polygon id="Shape" points="199.5 85 199.5 132.6 202.1 134.6 202.1 85"></polygon>
<rect id="Rectangle-path" x="188.5" y="95.8" width="2.6" height="15.5"></rect>
<polygon id="Shape" points="177.4 85 177.4 115.7 180.1 117.7 180.1 85"></polygon>
<path d="M162.8,150.9 C162.8,146.6 159.3,143.2 155.1,143.2 C150.9,143.2 147.4,146.7 147.4,150.9 C147.4,155.2 150.9,158.6 155.1,158.6 C159.3,158.6 162.8,155.1 162.8,150.9 Z M149.8,150.9 C149.8,148 152.2,145.6 155.1,145.6 C158,145.6 160.4,148 160.4,150.9 C160.4,153.8 158,156.2 155.1,156.2 C152.2,156.2 149.8,153.8 149.8,150.9 Z" id="Shape"></path>
<path d="M15.4,216 L294.9,216 C295.3,215.1 295.6,214.3 296,213.4 L14.3,213.4 C14.6,214.3 15,215.1 15.4,216 Z" id="Shape"></path>
<path d="M202.1,143.1 L202.1,143.1 L202.1,143.1 L202.1,140.2 L202.1,140 L156,104.7 C155.7,104.5 155.4,104.4 155.1,104.4 C155.1,104.4 155.1,104.4 155.1,104.4 C155.1,104.4 155.1,104.4 155.1,104.4 C154.8,104.4 154.5,104.5 154.2,104.7 L108.1,139.9 L108.1,140.1 L108.1,143 L108.1,143 L108.1,143 C108.1,143 108.1,143 108.1,143 L155,107.3 L155,107.3 L155,107.3 L202.1,143.1 C202.1,143.1 202.1,143.1 202.1,143.1 Z" id="Shape"></path>
<path d="M204.7,108.7 L204.7,111.3 L232.4,111.3 L232.4,158.1 C232.5,158.1 232.6,158.2 232.6,158.2 L235,160 L235,85 L232.4,85 L232.4,97.1 L218.3,85.3 C217.8,84.9 217.2,84.9 216.7,85.3 L204.8,94.4 L204.8,97.7 L217.5,88 L232.5,100.6 L232.5,108.7 L204.7,108.7 L204.7,108.7 Z" id="Shape"></path>
<path d="M243.1,209.8 L243.1,196.4 C243.1,190.2 238.1,185.1 231.8,185.1 C225.6,185.1 220.5,190.1 220.5,196.4 L220.5,209.8 L223.2,209.8 L223.2,196.4 C223.2,191.7 227,187.8 231.8,187.8 C236.5,187.8 240.4,191.6 240.4,196.4 L240.4,209.8 L243.1,209.8 Z" id="Shape"></path>
<path d="M166.3,209.8 L166.3,193.2 C166.3,187 161.3,181.9 155,181.9 C148.8,181.9 143.7,186.9 143.7,193.2 L143.7,209.8 L146.4,209.8 L146.4,193.2 C146.4,188.5 150.2,184.6 155,184.6 C159.7,184.6 163.6,188.4 163.6,193.2 L163.6,209.8 L166.3,209.8 Z" id="Shape"></path>
<path d="M202.1,209.8 L202.1,158.1 C202.1,149 194.2,144.6 190.8,143.2 L190.5,143.1 L190,143.1 L189.7,143.2 C186.3,144.6 178.4,149 178.4,158.1 L178.4,190.3 L181.1,190.3 L181.1,158.1 C181.1,151 187.1,147.3 190.2,145.9 C193.3,147.3 199.3,151 199.3,158.1 L199.3,209.8 L202.1,209.8 Z" id="Shape"></path>
<polygon id="Shape" points="219.2 156.3 219.2 133.6 216.6 133.6 216.6 154.3"></polygon>
<path d="M32.8,114.5 L32.8,114.5 C32.6,115.1 32.4,115.7 32.2,116.4 C32,116.9 31.9,117.4 31.7,117.9 C31.4,118.9 31.1,119.8 30.9,120.8 C30.6,121.7 30.4,122.7 30.1,123.7 C29.9,124.4 29.8,125 29.6,125.7 C29.4,126.7 29.2,127.6 29,128.6 C28.9,129.3 28.7,130 28.6,130.7 C28.4,131.8 28.2,132.8 28,133.9 C27.9,134.4 27.8,134.9 27.7,135.4 C27.5,136.8 27.3,138.1 27.1,139.5 C27.1,139.9 27,140.3 27,140.7 C26.9,142 26.7,143.2 26.6,144.5 C26.6,144.8 26.5,145.1 26.5,145.4 C26.4,146.9 26.3,148.4 26.2,149.9 C26.2,150.3 26.2,150.6 26.2,151 C26.1,152.5 26.1,154.1 26.1,155.7 C26.1,157.3 26.1,158.8 26.2,160.4 C26.2,160.8 26.2,161.1 26.2,161.5 C26.3,163 26.4,164.5 26.5,166 C26.5,166.3 26.6,166.6 26.6,166.9 C26.7,168.2 26.8,169.4 27,170.7 C27,171.1 27.1,171.5 27.1,171.8 C27.3,173.2 27.5,174.6 27.7,176 C27.8,176.5 27.9,177 27.9,177.5 C28.1,178.6 28.3,179.7 28.5,180.8 C28.6,181.5 28.8,182.1 28.9,182.8 C29.1,183.8 29.3,184.8 29.6,185.7 C29.8,186.4 29.9,187 30.1,187.7 C30.4,188.7 30.6,189.7 30.9,190.8 C31.1,191.7 31.4,192.6 31.7,193.5 C31.9,194 32,194.5 32.2,195 C32.3,195.3 32.4,195.7 32.5,196 L35.4,196 C35.1,195.2 34.9,194.5 34.6,193.7 C34.5,193.5 34.5,193.3 34.4,193.1 C33.9,191.4 33.4,189.6 32.9,187.8 C32.8,187.6 32.8,187.4 32.7,187.2 C31.7,183.3 30.9,179.4 30.3,175.4 C30.2,175 30.2,174.5 30.1,174.1 C29.9,172.6 29.7,171.1 29.5,169.6 C29.4,169 29.4,168.4 29.3,167.8 C29.2,166.4 29.1,165 29,163.6 C29,163 28.9,162.4 28.9,161.8 C28.8,159.8 28.7,157.9 28.7,155.9 C28.7,153.9 28.8,151.9 28.9,150 C28.9,149.4 29,148.8 29,148.2 C29.1,146.8 29.2,145.4 29.3,143.9 C29.4,143.3 29.4,142.7 29.5,142.1 C29.7,140.6 29.9,139.1 30.1,137.6 C30.2,137.2 30.2,136.8 30.3,136.3 C30.9,132.3 31.7,128.4 32.7,124.5 C32.7,124.3 32.8,124.1 32.8,124 C33.3,122.2 33.8,120.4 34.3,118.7 C34.4,118.5 34.4,118.3 34.5,118.1 C43.8,88.7 63.5,63.8 89.4,48 C89.5,47.9 89.6,47.9 89.8,47.8 C91.3,46.9 92.8,46.1 94.3,45.2 C94.7,45 95,44.8 95.4,44.6 C96.6,43.9 97.9,43.3 99.1,42.7 C99.7,42.4 100.3,42.1 100.9,41.8 C101.9,41.3 102.9,40.9 103.8,40.5 C104.7,40.1 105.5,39.7 106.4,39.3 C106.9,39.1 107.5,38.9 108,38.7 C112.5,36.9 117.2,35.3 121.9,34 C122,34 122.1,33.9 122.2,33.9 C123.6,33.5 125.1,33.2 126.6,32.8 C127,32.7 127.5,32.6 127.9,32.5 C129.2,32.2 130.5,32 131.9,31.7 C132.5,31.6 133.2,31.5 133.8,31.4 C135,31.2 136.2,31 137.4,30.8 C138.2,30.7 139.1,30.6 139.9,30.5 C141,30.4 142,30.3 143.1,30.2 C144.2,30.1 145.3,30 146.5,29.9 C147.3,29.8 148.2,29.8 149,29.7 C151,29.6 153,29.5 155,29.5 C157,29.5 159,29.6 161,29.7 C161.8,29.7 162.7,29.8 163.5,29.9 C164.6,30 165.7,30.1 166.9,30.2 C168,30.3 169,30.4 170.1,30.5 C170.9,30.6 171.8,30.7 172.6,30.8 C173.8,31 175,31.2 176.2,31.4 C176.8,31.5 177.5,31.6 178.1,31.7 C179.4,31.9 180.7,32.2 182.1,32.5 C182.5,32.6 183,32.7 183.4,32.8 C184.9,33.1 186.3,33.5 187.8,33.9 C187.9,33.9 188,34 188.1,34 C192.8,35.3 197.5,36.8 202,38.7 C202.5,38.9 203.1,39.1 203.6,39.3 C204.5,39.7 205.3,40.1 206.2,40.5 C207.2,40.9 208.2,41.4 209.1,41.8 C209.7,42.1 210.3,42.4 210.9,42.7 C212.2,43.3 213.4,44 214.6,44.6 C215,44.8 215.3,45 215.7,45.2 C217.2,46 218.7,46.9 220.2,47.8 C220.3,47.9 220.4,47.9 220.6,48 C246.5,63.8 266.2,88.6 275.5,118.1 C275.6,118.3 275.6,118.5 275.7,118.7 C276.2,120.5 276.7,122.2 277.2,124 C277.2,124.2 277.3,124.4 277.3,124.5 C278.3,128.4 279.1,132.3 279.7,136.3 C279.8,136.7 279.8,137.1 279.9,137.6 C280.1,139.1 280.3,140.6 280.5,142.1 C280.6,142.7 280.6,143.3 280.7,143.9 C280.8,145.3 280.9,146.7 281,148.2 C281,148.8 281.1,149.4 281.1,150 C281.2,152 281.3,153.9 281.3,155.9 C281.3,157.9 281.2,159.9 281.1,161.8 C281.1,162.4 281,163 281,163.6 C280.9,165 280.8,166.4 280.7,167.8 C280.6,168.4 280.6,169 280.5,169.6 C280.3,171.1 280.1,172.6 279.9,174.1 C279.8,174.5 279.8,175 279.7,175.4 C279.1,179.4 278.3,183.3 277.3,187.2 C277.3,187.4 277.2,187.6 277.1,187.8 C276.6,189.6 276.1,191.3 275.6,193.1 C275.5,193.3 275.5,193.5 275.4,193.7 C275.2,194.5 274.9,195.2 274.6,196 L277.5,196 C277.6,195.7 277.7,195.3 277.8,195 C278,194.5 278.1,194 278.3,193.5 C278.6,192.6 278.8,191.7 279.1,190.8 C279.4,189.8 279.7,188.8 279.9,187.7 C280.1,187 280.2,186.4 280.4,185.7 C280.6,184.7 280.9,183.7 281.1,182.8 C281.2,182.1 281.4,181.5 281.5,180.8 C281.7,179.7 281.9,178.6 282.1,177.5 C282.2,177 282.3,176.5 282.3,176 C282.5,174.6 282.7,173.2 282.9,171.8 C282.9,171.4 283,171 283,170.7 C283.1,169.4 283.3,168.2 283.4,166.9 C283.4,166.6 283.5,166.3 283.5,166 C283.6,164.5 283.7,163 283.8,161.5 C283.8,161.1 283.8,160.8 283.8,160.4 C283.9,158.9 283.9,157.3 283.9,155.7 C283.9,154.1 283.9,152.6 283.8,151 C283.8,150.6 283.8,150.3 283.8,149.9 C283.7,148.4 283.6,146.9 283.5,145.4 C283.5,145.1 283.4,144.8 283.4,144.5 C283.3,143.2 283.2,142 283,140.7 C283,140.3 282.9,139.9 282.9,139.5 C282.7,138.1 282.5,136.7 282.3,135.4 C282.2,134.9 282.1,134.4 282,133.9 C281.8,132.8 281.6,131.8 281.4,130.7 C281.3,130 281.1,129.3 281,128.6 C280.8,127.6 280.6,126.7 280.4,125.7 C280.2,125 280.1,124.4 279.9,123.7 C279.7,122.7 279.4,121.8 279.1,120.8 C278.8,119.8 278.5,118.9 278.3,117.9 C278.2,117.4 278,116.9 277.8,116.4 C277.6,115.8 277.4,115.1 277.2,114.5 L277.2,114.5 C269.6,91.7 255.7,71.8 237.7,56.7 L237.7,56.7 C232.7,52.5 227.4,48.8 221.9,45.4 C221.7,45.3 221.5,45.1 221.2,45 C220,44.3 218.8,43.6 217.6,42.9 C216.8,42.5 216.1,42 215.3,41.6 C214.8,41.3 214.2,41 213.7,40.8 C212.3,40.1 211,39.4 209.6,38.8 C209.4,38.7 209.1,38.6 208.9,38.5 C195.7,32.4 181.3,28.4 166.2,27.1 C166.1,27.1 166,27.1 165.9,27.1 C164.1,26.9 162.4,26.8 160.6,26.8 C160.4,26.8 160.2,26.8 160,26.8 C158.3,26.7 156.5,26.7 154.7,26.7 C152.9,26.7 151.2,26.7 149.4,26.8 C149.2,26.8 149,26.8 148.8,26.8 C147,26.9 145.3,27 143.5,27.1 C143.4,27.1 143.3,27.1 143.2,27.1 C128.1,28.4 113.7,32.4 100.5,38.5 C100.3,38.6 100,38.7 99.8,38.8 C98.4,39.5 97.1,40.1 95.7,40.8 C95.2,41.1 94.6,41.4 94.1,41.6 C93.3,42 92.6,42.4 91.8,42.9 C90.6,43.6 89.4,44.3 88.2,45 C88,45.1 87.8,45.3 87.5,45.4 C82,48.8 76.7,52.5 71.7,56.7 L71.7,56.7 C54.2,71.7 40.4,91.7 32.8,114.5 Z" id="Shape"></path>
<path d="M254.1,222.9 C241.4,222.9 231,233.2 230.8,245.8 L228,245.8 C227.8,233.1 217.4,222.9 204.7,222.9 C192,222.9 181.6,233.2 181.4,245.8 L178.6,245.8 C178.4,233.1 168,222.9 155.3,222.9 C142.6,222.9 132.2,233.2 132,245.8 L129.2,245.8 C129,233.1 118.6,222.9 105.9,222.9 C93.2,222.9 82.8,233.2 82.6,245.8 L79.8,245.8 C79.6,233.1 69.2,222.9 56.5,222.9 C44,222.9 33.9,232.7 33.2,245 C34.1,246.2 34.9,247.3 35.8,248.5 L35.8,246.3 C35.8,234.9 45.1,225.6 56.5,225.6 C67.8,225.6 76.9,234.7 77.2,245.9 L74.8,245.9 L74.8,248.6 L77.2,248.6 L77.2,254.4 C74.8,252.5 72.5,250.6 70.3,248.6 L66.4,248.6 C68.4,250.6 70.6,252.5 72.7,254.3 L72.7,254.3 C77.7,258.5 83,262.2 88.5,265.6 C88.7,265.7 89,265.9 89.2,266 C90.4,266.7 91.6,267.4 92.8,268.1 C93.6,268.5 94.4,269 95.1,269.4 C95.6,269.7 96.1,270 96.7,270.2 C98.1,270.9 99.4,271.6 100.8,272.2 C101,272.3 101.3,272.4 101.5,272.5 C114.7,278.6 129.1,282.6 144.2,283.9 C144.3,283.9 144.4,283.9 144.5,283.9 C146.3,284.1 148,284.2 149.8,284.2 C150,284.2 150.2,284.2 150.4,284.2 C152.1,284.3 153.9,284.3 155.7,284.3 C157.5,284.3 159.2,284.3 161,284.2 C161.2,284.2 161.4,284.2 161.6,284.2 C163.4,284.1 165.1,284 166.9,283.9 C167,283.9 167.1,283.9 167.2,283.9 C182.3,282.6 196.7,278.6 209.9,272.5 C210.1,272.4 210.4,272.3 210.6,272.2 C212,271.5 213.3,270.9 214.7,270.2 C215.2,269.9 215.7,269.6 216.3,269.4 C217.1,269 217.9,268.6 218.6,268.1 C219.8,267.4 221,266.7 222.2,266 C222.4,265.9 222.7,265.7 222.9,265.6 C228.4,262.2 233.7,258.5 238.7,254.3 L238.7,254.3 C240.9,252.5 243,250.6 245,248.6 L241.1,248.6 C238.9,250.6 236.6,252.6 234.2,254.4 L234.2,248.6 L236.6,248.6 L236.6,245.9 L234.2,245.9 C234.4,234.7 243.6,225.6 254.9,225.6 C266.3,225.6 275.6,234.9 275.6,246.3 L275.6,248.5 C276.5,247.4 277.4,246.2 278.2,245 C276.7,232.7 266.6,222.9 254.1,222.9 Z M82.2,258.4 C81.3,257.7 80.3,257.1 79.4,256.4 L79.4,248.4 L82.2,248.4 L82.2,258.4 Z M126.3,278.3 C125,278 123.7,277.7 122.5,277.4 C122.4,277.4 122.3,277.3 122.2,277.3 C117.5,276 112.8,274.5 108.3,272.6 C107.8,272.4 107.2,272.2 106.7,272 C105.8,271.6 104.9,271.2 104.1,270.8 C103.1,270.4 102.1,269.9 101.2,269.5 C100.6,269.2 100,268.9 99.4,268.6 C98.1,268 96.9,267.3 95.7,266.7 C95.3,266.5 94.9,266.3 94.6,266.1 C93.1,265.3 91.6,264.4 90.1,263.5 C90,263.4 89.9,263.4 89.7,263.3 C88.1,262.3 86.6,261.3 85,260.3 L85.1,260.3 L85.1,248.5 L87.5,248.5 L87.5,245.8 L85.1,245.8 C85.3,234.6 94.5,225.5 105.8,225.5 C117.1,225.5 126.2,234.6 126.5,245.8 L124.1,245.8 L124.1,248.5 L126.5,248.5 L126.5,278.3 L126.3,278.3 Z M131.7,279.5 C130.8,279.3 129.8,279.1 128.9,278.9 L128.9,248.5 L131.7,248.5 L131.7,279.5 Z M175.8,280 C174.7,280.2 173.7,280.3 172.6,280.5 C171.8,280.6 170.9,280.7 170.1,280.8 C169,280.9 168,281 166.9,281.1 C165.8,281.2 164.7,281.3 163.5,281.4 C162.7,281.5 161.8,281.5 161,281.6 C159,281.7 157,281.8 155,281.8 C153,281.8 151,281.7 149,281.6 C148.2,281.6 147.3,281.5 146.5,281.4 C145.4,281.3 144.3,281.2 143.1,281.1 C142,281 141,280.9 139.9,280.8 C139.1,280.7 138.2,280.6 137.4,280.5 C136.3,280.4 135.3,280.2 134.2,280 L134.2,248.5 L136.6,248.5 L136.6,245.8 L134.2,245.8 C134.4,234.6 143.6,225.5 154.9,225.5 C166.2,225.5 175.3,234.6 175.6,245.8 L173.2,245.8 L173.2,248.5 L175.6,248.5 L175.6,280 L175.8,280 Z M181.3,278.9 C180.4,279.1 179.5,279.3 178.5,279.5 L178.5,248.5 L181.3,248.5 L181.3,278.9 Z M220.7,263.3 C220.6,263.4 220.5,263.4 220.3,263.5 C218.8,264.4 217.3,265.2 215.8,266.1 C215.4,266.3 215,266.5 214.7,266.7 C213.5,267.4 212.2,268 211,268.6 C210.4,268.9 209.8,269.2 209.2,269.5 C208.2,270 207.2,270.4 206.3,270.8 C205.4,271.2 204.6,271.6 203.7,272 C203.2,272.2 202.6,272.4 202.1,272.6 C197.6,274.4 192.9,276 188.2,277.3 C188.1,277.3 188,277.4 187.9,277.4 C186.6,277.7 185.3,278 184.1,278.3 L184.1,248.5 L186.5,248.5 L186.5,245.8 L184.1,245.8 C184.3,234.6 193.5,225.5 204.8,225.5 C216.1,225.5 225.2,234.6 225.5,245.8 L223.1,245.8 L223.1,248.5 L225.5,248.5 L225.5,260.3 L225.6,260.3 C223.8,261.3 222.3,262.3 220.7,263.3 Z M230.7,256.4 C229.8,257.1 228.9,257.7 227.9,258.4 L227.9,248.4 L230.7,248.4 L230.7,256.4 Z" id="Shape"></path>
<path d="M177.4,59.2 L165.6,59.2 C165.7,59.7 165.7,60.1 165.7,60.6 C165.7,60.6 165.7,60.7 165.7,60.7 C165.7,60.7 165.7,60.7 165.7,60.8 C165.7,61.2 165.7,61.5 165.6,61.9 L177.4,61.9 L177.4,59.2 Z" id="Shape"></path>
<path d="M155.2,71.2 C155.2,71.2 155.1,71.2 155.1,71.2 C155.1,71.2 155,71.2 155,71.2 L155,71.2 C155,71.2 154.9,71.2 154.9,71.2 C154.5,71.2 154.1,71.2 153.8,71.1 L153.8,82.8 L155.2,82.8 L156.6,82.8 L156.6,71.1 C156.2,71.1 155.9,71.2 155.5,71.2 C155.3,71.2 155.3,71.2 155.2,71.2 L155.2,71.2 Z" id="Shape"></path>
<path d="M154.9,50.3 L154.9,50.3 C155,50.3 155,50.3 155,50.3 C155,50.3 155.1,50.3 155.1,50.3 L155.1,50.3 L155.1,50.3 C155.1,50.3 155.1,50.3 155.1,50.3 C155.5,50.3 155.9,50.3 156.3,50.4 L156.3,38.3 L154.9,38.3 L153.5,38.3 L153.5,50.4 C154.1,50.4 154.5,50.3 154.9,50.3 C154.9,50.3 154.9,50.3 154.9,50.3 L154.9,50.3 Z" id="Shape"></path>
<path d="M163.8,66.8 C163.7,66.9 163.6,67 163.5,67.2 C163.3,67.5 163,67.8 162.7,68.1 L169.1,73 L169.1,69.3 L164.4,65.7 C164.2,66 164,66.4 163.8,66.8 Z" id="Shape"></path>
<path d="M163.2,54 C163.4,54.2 163.5,54.4 163.6,54.5 C163.9,54.8 164.1,55.2 164.3,55.6 L169.1,51.9 L169.1,48.2 L162.5,53.3 C162.7,53.5 162.9,53.8 163.2,54 Z" id="Shape"></path>
<path d="M152.9,53.3 C152.6,53.4 152.4,53.4 152.1,53.5 C151.9,53.6 151.7,53.7 151.4,53.8 C151.2,53.9 151,54 150.8,54.1 C150.6,54.2 150.4,54.4 150.2,54.6 C150.1,54.7 150,54.7 149.9,54.8 C149.9,54.8 149.8,54.9 149.8,54.9 C149.6,55.1 149.4,55.4 149.1,55.6 C149,55.7 148.9,55.9 148.8,56 C148.6,56.3 148.4,56.5 148.3,56.8 C148.2,56.9 148.2,57 148.1,57.1 C148.1,57.2 148,57.3 148,57.4 C147.9,57.5 147.9,57.7 147.8,57.8 C147.7,58.2 147.5,58.5 147.4,58.9 C147.4,59 147.4,59.1 147.3,59.2 C147.2,59.6 147.2,60 147.2,60.5 C147.2,60.5 147.2,60.5 147.2,60.6 C147.2,60.6 147.2,60.6 147.2,60.7 C147.2,61.2 147.3,61.6 147.3,62 C147.3,62.1 147.3,62.2 147.3,62.2 C147.4,62.6 147.5,63 147.7,63.4 C147.7,63.5 147.8,63.6 147.8,63.7 C147.8,63.7 147.8,63.7 147.8,63.8 C147.8,63.9 147.9,64 148,64.1 C148.2,64.4 148.4,64.8 148.6,65.1 C148.7,65.2 148.8,65.3 148.8,65.4 C149,65.7 149.3,66 149.5,66.2 C149.5,66.2 149.5,66.2 149.5,66.2 C149.6,66.3 149.7,66.3 149.8,66.4 C150.1,66.6 150.3,66.8 150.6,67 C150.7,67.1 150.9,67.1 151,67.2 C151.3,67.4 151.6,67.5 151.9,67.7 C152.1,67.8 152.3,67.8 152.6,67.9 C152.9,68 153.1,68.1 153.4,68.1 C153.9,68.2 154.4,68.2 154.9,68.2 C154.9,68.2 154.9,68.2 155,68.2 L155,68.2 C155.1,68.2 155.1,68.2 155.1,68.2 C155.1,68.2 155.2,68.2 155.2,68.2 L155.2,68.2 C155.2,68.2 155.2,68.2 155.3,68.2 C155.8,68.2 156.3,68.1 156.8,68.1 C157.1,68 157.3,68 157.6,67.9 C157.8,67.8 158,67.8 158.3,67.7 C158.6,67.6 158.9,67.4 159.2,67.2 C159.3,67.1 159.5,67.1 159.6,67 C159.9,66.8 160.1,66.6 160.4,66.4 C160.5,66.3 160.6,66.3 160.7,66.2 C160.7,66.2 160.7,66.2 160.7,66.2 C161,65.9 161.2,65.6 161.4,65.4 C161.5,65.3 161.6,65.2 161.6,65.1 C161.8,64.8 162,64.5 162.2,64.1 C162.2,64 162.3,63.9 162.4,63.8 C162.4,63.8 162.4,63.8 162.4,63.7 C162.5,63.6 162.5,63.5 162.5,63.4 C162.6,63 162.8,62.6 162.9,62.2 C162.9,62.1 162.9,62 162.9,62 C163,61.6 163,61.1 163,60.7 C163,60.7 163,60.7 163,60.6 C163,60.6 163,60.6 163,60.5 C163,60.1 162.9,59.6 162.9,59.2 C162.9,59.1 162.9,59 162.8,58.9 C162.7,58.5 162.6,58.1 162.4,57.8 C162.3,57.7 162.3,57.5 162.2,57.4 C162.2,57.3 162.1,57.2 162.1,57.1 C162,57 162,56.9 161.9,56.8 C161.7,56.5 161.6,56.2 161.4,56 C161.3,55.9 161.2,55.7 161.1,55.6 C160.9,55.4 160.7,55.1 160.4,54.9 C160.4,54.9 160.3,54.8 160.3,54.8 C160.2,54.7 160.1,54.6 160,54.6 C159.8,54.4 159.6,54.3 159.4,54.1 C159.2,54 159,53.9 158.8,53.8 C158.6,53.7 158.4,53.6 158.1,53.5 C157.8,53.4 157.6,53.3 157.3,53.3 C157.1,53.2 156.9,53.2 156.7,53.1 C156.2,53 155.7,53 155.2,53 C155.2,53 155.2,53 155.2,53 L155.2,53 L155.2,53 C155.1,53 155.1,53 155.1,53 C155.1,53 155,53 155,53 L155,53 L155,53 C155,53 155,53 155,53 C154.5,53 154,53.1 153.5,53.1 C153.3,53.2 153.1,53.3 152.9,53.3 Z M154.9,55.5 C154.9,55.5 155,55.5 155,55.5 C155,55.5 155.1,55.5 155.1,55.5 C156.2,55.5 157.3,55.9 158.2,56.5 C159,57.1 159.7,57.9 160,58.8 C160.2,59.4 160.4,60.1 160.4,60.8 C160.4,61.4 160.3,61.9 160.1,62.4 C159.8,63.4 159.2,64.2 158.4,64.8 C157.5,65.5 156.3,66 155.1,66 C155.1,66 155,66 155,66 C155,66 154.9,66 154.9,66 C153.6,66 152.5,65.5 151.6,64.8 C150.8,64.2 150.2,63.3 149.9,62.4 C149.7,61.9 149.6,61.3 149.6,60.8 C149.6,60.1 149.7,59.4 150,58.8 C150.4,57.9 151,57.1 151.8,56.5 C152.7,55.9 153.8,55.5 154.9,55.5 Z" id="Shape"></path>
<path d="M261.6,209.8 L261.6,188.4 L261.6,185.2 L261.6,185.1 L232.6,163 C232.3,162.8 232,162.7 231.7,162.7 C231.4,162.7 231.1,162.8 230.8,163 L204.6,183.1 L204.6,186.4 L231.6,165.8 L258.8,186.5 L258.8,209.9 L261.6,209.9 L261.6,209.8 Z" id="Shape"></path>
<path d="M203.8,78.7 L190.7,68.7 C190.2,68.3 189.4,68.3 188.9,68.7 L175.8,78.7 L175.8,82.4 L189.8,71.7 L203.8,82.4 L203.8,78.7 L203.8,78.7 Z" id="Shape"></path>
<path d="M13.1,185.4 C12.8,185.1 12.5,184.9 12.1,184.8 C11.7,184.7 11.3,184.7 10.9,184.7 C10.5,184.8 10.1,185 9.8,185.3 C9.5,185.6 9.3,185.9 9.2,186.3 C9.1,186.7 9.1,187.1 9.2,187.5 C9.3,187.9 9.5,188.3 9.8,188.6 C10.1,188.9 10.4,189.1 10.8,189.3 C11.2,189.4 11.6,189.4 12,189.4 C12.4,189.3 12.8,189.1 13.1,188.8 C13.4,188.5 13.6,188.2 13.8,187.8 C13.9,187.4 13.9,187 13.9,186.6 C13.5,186.1 13.4,185.7 13.1,185.4 Z" id="Shape"></path>
<path d="M11.6,169.6 C12.2,169.2 12.7,168.6 13,167.9 C13.3,167.2 13.4,166.3 13.4,165.4 C13.3,164.5 13.1,163.7 12.7,163 C12.3,162.3 11.7,161.8 11.1,161.5 C10.4,161.2 9.7,161 8.8,161.1 L0.7,161.7 C0.5,161.7 0.4,161.8 0.4,162 L0.5,163.9 C0.5,164.1 0.6,164.2 0.8,164.2 L8.9,163.6 C9.5,163.6 10.1,163.7 10.5,164.1 C10.9,164.5 11.1,165 11.2,165.6 C11.2,166.2 11.1,166.8 10.7,167.2 C10.3,167.6 9.8,167.8 9.2,167.9 L1.1,168.5 C0.9,168.5 0.8,168.6 0.8,168.8 L0.9,170.7 C0.9,170.9 1,171 1.2,171 L9.3,170.4 C10.3,170.3 11,170 11.6,169.6 Z" id="Shape"></path>
<path d="M12.5,154.4 C12.7,154.4 12.8,154.3 12.8,154.1 L12.9,152.2 C12.9,152 12.8,151.9 12.6,151.9 L5.1,151.6 C5.1,151.6 5,151.6 5,151.6 C5,151.6 5,151.5 5.1,151.5 L12.9,147.3 C13,147.2 13.1,147.1 13.1,146.9 L13.2,145.1 C13.2,144.9 13.1,144.8 12.9,144.8 L0.9,144.3 C0.7,144.3 0.6,144.4 0.6,144.6 L0.5,146.5 C0.5,146.7 0.6,146.8 0.8,146.8 L8.2,147.1 C8.2,147.1 8.3,147.1 8.3,147.1 C8.3,147.1 8.3,147.2 8.2,147.2 L0.5,151.4 C0.4,151.5 0.3,151.6 0.3,151.8 L0.2,153.7 C0.2,153.9 0.3,154 0.5,154 L12.5,154.4 Z" id="Shape"></path>
<path d="M14,135.7 L2.1,134.1 C1.9,134.1 1.8,134.2 1.8,134.4 L1.5,136.3 C1.5,136.5 1.6,136.6 1.8,136.6 L13.7,138.2 C13.9,138.2 14,138.1 14,137.9 L14.2,136 C14.3,135.9 14.2,135.8 14,135.7 Z" id="Shape"></path>
<path d="M3,127.3 C3,127.3 3.1,127.3 3.1,127.3 L15.7,126.3 C15.9,126.3 16,126.2 16,126 L16.4,124 C16.4,123.8 16.4,123.7 16.2,123.6 L5.2,117.4 C5.1,117.3 5,117.3 5,117.4 C4.9,117.4 4.9,117.5 4.9,117.6 L4.5,119.6 C4.5,119.8 4.5,119.9 4.7,120 L12.7,124.1 C12.7,124.1 12.8,124.1 12.8,124.2 C12.8,124.2 12.8,124.3 12.7,124.3 L3.7,124.7 C3.5,124.7 3.4,124.8 3.4,125 L3,127 C2.8,127.2 2.9,127.3 3,127.3 Z" id="Shape"></path>
<path d="M18.6,114.4 C18.8,114.5 18.9,114.4 19,114.2 L21.6,106.5 C21.7,106.3 21.6,106.2 21.4,106.1 L19.9,105.6 C19.7,105.5 19.6,105.6 19.5,105.8 L17.7,111.3 C17.7,111.4 17.6,111.4 17.6,111.4 L14.9,110.5 C14.8,110.5 14.8,110.4 14.8,110.4 L16,106.8 C16.1,106.6 16,106.5 15.8,106.4 L14.3,105.9 C14.1,105.8 14,105.9 13.9,106.1 L12.7,109.7 C12.7,109.8 12.6,109.8 12.6,109.8 L10,108.9 C9.9,108.9 9.9,108.8 9.9,108.8 L11.7,103.3 C11.8,103.1 11.7,103 11.5,102.9 L10,102.4 C9.8,102.3 9.7,102.4 9.6,102.6 L7,110.3 C6.9,110.5 7,110.6 7.2,110.7 L18.6,114.4 Z" id="Shape"></path>
<path d="M23.6,100.5 C23.8,100.6 23.9,100.5 24,100.3 L24.8,98.5 C24.9,98.3 24.8,98.2 24.6,98.1 L20.2,96.1 C20.1,96.1 20.1,96 20.1,96 L20.8,94.5 C20.8,94.4 20.9,94.4 20.9,94.4 L26.3,94.4 C26.5,94.4 26.6,94.3 26.7,94.2 L27.5,92.3 C27.5,92.2 27.5,92.2 27.5,92.1 C27.5,92 27.5,92 27.4,92 C27.3,92 27.3,92 27.2,92 L21.7,92.1 C21.7,92.1 21.6,92.1 21.6,92.1 C21.6,92.1 21.6,92 21.6,92 C21.7,91.2 21.5,90.6 21.2,89.9 C20.8,89.3 20.3,88.8 19.5,88.5 C18.8,88.2 18.2,88.1 17.5,88.1 C16.8,88.1 16.2,88.4 15.7,88.8 C15.2,89.2 14.7,89.7 14.4,90.4 L12.3,95 C12.2,95.2 12.3,95.3 12.5,95.4 L23.6,100.5 Z M16.4,91.7 C16.6,91.2 16.9,90.9 17.3,90.8 C17.7,90.6 18.1,90.7 18.6,90.9 C19,91.1 19.3,91.4 19.5,91.8 C19.6,92.2 19.6,92.7 19.4,93.1 L18.4,95.2 C18.4,95.3 18.3,95.3 18.3,95.3 L15.5,94 C15.4,94 15.4,93.9 15.4,93.9 L16.4,91.7 Z" id="Shape"></path>
<path d="M22.5,82.4 C23.1,82.8 23.8,82.9 24.4,82.8 C25,82.7 25.6,82.5 26.1,82.2 C26.6,81.9 27.2,81.4 27.9,80.9 C28.5,80.4 28.9,80.1 29.2,79.9 C29.5,79.7 29.8,79.6 30,79.5 C30.3,79.4 30.5,79.5 30.8,79.6 C31.1,79.8 31.4,80.1 31.4,80.5 C31.5,80.9 31.4,81.4 31,81.9 C30.6,82.5 30.2,82.9 29.7,83.1 C29.2,83.3 28.7,83.3 28.3,83 L28.1,82.9 C28,82.8 27.8,82.9 27.7,83 L26.7,84.6 C26.6,84.8 26.6,84.9 26.8,85 L27.1,85.2 C27.8,85.6 28.4,85.8 29.1,85.7 C29.8,85.7 30.4,85.4 31.1,85 C31.7,84.5 32.3,83.9 32.8,83.1 C33.3,82.3 33.6,81.5 33.7,80.8 C33.8,80.1 33.7,79.4 33.4,78.8 C33.1,78.2 32.7,77.7 32,77.3 C31.3,76.9 30.7,76.8 30.1,76.9 C29.5,77 29,77.2 28.5,77.5 C28,77.8 27.5,78.2 26.8,78.8 C26.2,79.3 25.7,79.7 25.4,79.9 C25.1,80.1 24.8,80.3 24.5,80.3 C24.2,80.4 24,80.3 23.7,80.1 C23.3,79.9 23.1,79.6 23.1,79.2 C23.1,78.8 23.2,78.4 23.5,77.9 C23.9,77.3 24.3,76.9 24.8,76.7 C25.3,76.5 25.8,76.6 26.2,76.8 L26.4,76.9 C26.5,77 26.6,76.9 26.7,76.7 L27.7,75.1 C27.8,74.9 27.8,74.8 27.6,74.7 L27.4,74.6 C26.7,74.2 26.1,74 25.3,74.1 C24.6,74.1 23.9,74.4 23.3,74.9 C22.7,75.4 22.1,76 21.6,76.8 C21.2,77.5 20.9,78.3 20.8,79 C20.7,79.7 20.8,80.4 21.1,81 C21.4,81.6 21.8,82.1 22.5,82.4 Z" id="Shape"></path>
<path d="M38.3,74 C38.5,74.1 38.6,74.1 38.7,73.9 L39.8,72.3 C39.9,72.1 39.9,72 39.7,71.9 L29.9,64.9 C29.7,64.8 29.6,64.8 29.5,65 L28.4,66.6 C28.3,66.8 28.3,66.9 28.5,67 L38.3,74 Z" id="Shape"></path>
<path d="M35.3,60.5 C35.5,60.6 35.6,60.6 35.7,60.5 L37.7,58.2 C37.7,58.1 37.8,58.1 37.9,58.2 L45.5,64.7 C45.7,64.8 45.8,64.8 45.9,64.7 L47.2,63.2 C47.3,63 47.3,62.9 47.2,62.8 L39.6,56.3 C39.5,56.3 39.5,56.2 39.6,56.1 L41.6,53.7 C41.7,53.5 41.7,53.4 41.6,53.3 L40.4,52.3 C40.2,52.2 40.1,52.2 40,52.3 L34.2,59.1 C34.1,59.3 34.1,59.4 34.2,59.5 L35.3,60.5 Z" id="Shape"></path>
<path d="M52.3,56.8 C52.3,56.9 52.4,56.9 52.5,57 C52.6,57 52.7,57 52.7,56.9 L54.2,55.4 C54.3,55.3 54.3,55.1 54.3,55 L53.5,53.4 C53.5,53.3 53.5,53.3 53.5,53.3 L56.7,50.2 C56.7,50.2 56.8,50.2 56.8,50.2 L58.3,51.1 C58.5,51.2 58.6,51.2 58.7,51 L60.2,49.5 C60.3,49.4 60.3,49.4 60.3,49.3 C60.3,49.2 60.3,49.2 60.2,49.1 C60.2,49.1 60.1,49 60.1,49 L49,43 C48.8,42.9 48.7,42.9 48.6,43.1 L46.7,44.9 C46.6,45 46.6,45.2 46.6,45.3 L52.3,56.8 Z M49.7,46.3 C49.8,46.2 49.8,46.2 49.7,46.3 L54.8,49.1 C54.9,49.2 54.9,49.2 54.8,49.3 L52.5,51.5 C52.4,51.5 52.4,51.5 52.3,51.5 L49.6,46.4 C49.7,46.3 49.7,46.3 49.7,46.3 Z" id="Shape"></path>
<path d="M60,40.2 C60.6,40.4 61.2,40.4 61.8,40.3 C62.4,40.2 63.1,40 63.9,39.7 C64.6,39.5 65.2,39.3 65.5,39.2 C65.8,39.1 66.2,39.1 66.4,39.1 C66.7,39.1 66.9,39.3 67.1,39.5 C67.3,39.8 67.4,40.2 67.4,40.6 C67.3,41 67,41.4 66.5,41.8 C65.9,42.2 65.4,42.5 64.8,42.5 C64.2,42.5 63.8,42.3 63.5,41.9 L63.3,41.7 C63.2,41.6 63.1,41.6 62.9,41.7 L61.4,42.9 C61.2,43 61.2,43.2 61.3,43.3 L61.5,43.5 C62,44.1 62.5,44.5 63.2,44.7 C63.9,44.9 64.6,44.9 65.3,44.7 C66.1,44.5 66.8,44.1 67.5,43.5 C68.2,42.9 68.8,42.3 69.2,41.6 C69.6,40.9 69.7,40.3 69.7,39.6 C69.7,38.9 69.4,38.3 69,37.7 C68.5,37.1 68,36.7 67.4,36.6 C66.8,36.5 66.2,36.5 65.7,36.6 C65.2,36.7 64.5,36.9 63.6,37.2 C62.8,37.5 62.2,37.6 61.9,37.7 C61.5,37.8 61.2,37.8 60.9,37.8 C60.6,37.8 60.4,37.6 60.2,37.4 C59.9,37.1 59.9,36.7 60,36.3 C60.1,35.9 60.4,35.5 60.8,35.2 C61.4,34.8 61.9,34.5 62.5,34.6 C63,34.6 63.5,34.8 63.8,35.2 L63.9,35.3 C64,35.4 64.1,35.4 64.3,35.3 L65.8,34.1 C66,34 66,33.8 65.9,33.7 L65.8,33.6 C65.3,33 64.8,32.6 64.1,32.4 C63.4,32.2 62.7,32.2 61.9,32.4 C61.1,32.6 60.4,33 59.7,33.5 C59,34 58.5,34.6 58.2,35.2 C57.9,35.8 57.7,36.5 57.7,37.1 C57.7,37.8 58,38.4 58.4,38.9 C58.8,39.7 59.4,40 60,40.2 Z" id="Shape"></path>
<path d="M87.1,22.4 C87.7,22.7 88.3,22.8 88.9,22.9 C89.5,22.9 90.3,22.9 91.1,22.8 C91.9,22.7 92.4,22.7 92.8,22.7 C93.2,22.7 93.5,22.7 93.7,22.8 C94,22.9 94.2,23.1 94.3,23.3 C94.5,23.7 94.5,24 94.3,24.4 C94.1,24.8 93.8,25.1 93.2,25.4 C92.6,25.7 92,25.8 91.4,25.7 C90.9,25.6 90.5,25.3 90.3,24.9 L90.2,24.7 C90.1,24.6 90,24.5 89.8,24.6 L88.1,25.4 C87.9,25.5 87.9,25.6 88,25.8 L88.1,26.1 C88.4,26.8 88.9,27.3 89.5,27.6 C90.1,27.9 90.8,28.1 91.6,28.1 C92.4,28.1 93.2,27.9 94,27.5 C94.8,27.1 95.5,26.6 96,26 C96.5,25.4 96.8,24.8 96.9,24.1 C97,23.4 96.9,22.8 96.6,22.1 C96.3,21.4 95.8,20.9 95.3,20.7 C94.7,20.4 94.2,20.3 93.6,20.3 C93.1,20.3 92.3,20.3 91.4,20.4 C90.6,20.5 90,20.5 89.6,20.5 C89.2,20.5 88.9,20.5 88.6,20.3 C88.3,20.2 88.2,20 88,19.7 C87.8,19.3 87.8,19 88,18.6 C88.2,18.2 88.5,17.9 89.1,17.7 C89.8,17.4 90.3,17.3 90.9,17.4 C91.4,17.5 91.8,17.8 92,18.3 L92.1,18.5 C92.2,18.6 92.3,18.6 92.5,18.5 L94.2,17.7 C94.4,17.6 94.4,17.5 94.3,17.3 L94.2,17.1 C93.9,16.4 93.4,15.9 92.8,15.5 C92.2,15.1 91.5,15 90.7,15 C89.9,15 89.1,15.2 88.3,15.6 C87.5,16 86.9,16.4 86.4,17 C85.9,17.5 85.6,18.1 85.5,18.8 C85.4,19.4 85.5,20.1 85.8,20.8 C86,21.7 86.5,22.1 87.1,22.4 Z" id="Shape"></path>
<path d="M99.3,13.2 C99.4,13.4 99.5,13.5 99.7,13.4 L102.6,12.4 C102.7,12.4 102.7,12.4 102.7,12.5 L106.1,21.9 C106.2,22.1 106.3,22.2 106.5,22.1 L108.3,21.5 C108.5,21.4 108.6,21.3 108.5,21.1 L105.1,11.7 C105.1,11.6 105.1,11.6 105.2,11.6 L108.1,10.6 C108.3,10.5 108.4,10.4 108.3,10.2 L107.8,8.7 C107.7,8.5 107.6,8.4 107.4,8.5 L99,11.5 C98.8,11.6 98.7,11.7 98.8,11.9 L99.3,13.2 Z" id="Shape"></path>
<path d="M117.5,16.5 C118,17 118.7,17.4 119.4,17.6 C120.2,17.8 121,17.8 121.9,17.6 C122.8,17.4 123.6,17 124.2,16.5 C124.8,16 125.2,15.4 125.4,14.6 C125.6,13.9 125.6,13.1 125.4,12.3 L123.5,4.4 C123.5,4.2 123.3,4.1 123.1,4.2 L121.2,4.6 C121,4.6 120.9,4.8 121,5 L122.9,12.9 C123,13.5 123,14.1 122.7,14.5 C122.4,15 122,15.3 121.3,15.4 C120.7,15.5 120.1,15.5 119.7,15.2 C119.2,14.9 118.9,14.5 118.8,13.8 L116.9,5.9 C116.9,5.7 116.7,5.6 116.5,5.7 L114.6,6.1 C114.4,6.1 114.3,6.3 114.4,6.5 L116.3,14.4 C116.6,15.2 117,15.9 117.5,16.5 Z" id="Shape"></path>
<path d="M133,15.2 L137.4,14.6 C138.3,14.5 139.1,14.2 139.7,13.8 C140.3,13.4 140.8,12.9 141.1,12.3 C141.4,11.7 141.5,11 141.4,10.2 L140.8,5.3 C140.7,4.5 140.4,3.9 140,3.4 C139.6,2.9 139,2.5 138.3,2.3 C137.6,2.1 136.8,2 135.9,2.1 L131.5,2.7 C131.3,2.7 131.2,2.8 131.2,3 L132.7,14.9 C132.6,15.1 132.8,15.2 133,15.2 Z M134,4.5 L136.1,4.2 C136.7,4.1 137.2,4.3 137.5,4.6 C137.9,4.9 138.1,5.4 138.2,6 L138.7,10.1 C138.8,10.7 138.7,11.2 138.4,11.7 C138.1,12.1 137.7,12.4 137.1,12.4 L134.9,12.7 C134.8,12.7 134.8,12.7 134.8,12.6 L133.8,4.6 C133.9,4.6 133.9,4.5 134,4.5 Z" id="Shape"></path>
<path d="M148.3,13.7 L150.2,13.6 C150.4,13.6 150.5,13.5 150.5,13.3 L150,1.3 C150,1.1 149.9,1 149.7,1 L147.8,1.1 C147.6,1.1 147.5,1.2 147.5,1.4 L148,13.4 C148,13.6 148.1,13.7 148.3,13.7 Z" id="Shape"></path>
<path d="M159.1,13.2 C159.8,13.6 160.6,13.8 161.6,13.9 C162.6,13.9 163.4,13.8 164.1,13.4 C164.8,13.1 165.4,12.5 165.8,11.9 C166.2,11.2 166.5,10.4 166.5,9.5 L166.7,5.6 C166.7,4.7 166.6,3.9 166.2,3.2 C165.8,2.5 165.3,1.9 164.6,1.5 C163.9,1.1 163.1,0.9 162.1,0.8 C161.2,0.8 160.3,0.9 159.6,1.3 C158.9,1.6 158.3,2.2 157.9,2.8 C157.5,3.5 157.2,4.2 157.2,5.1 L157,9 C157,9.9 157.1,10.7 157.5,11.4 C157.8,12.2 158.4,12.8 159.1,13.2 Z M159.7,5.3 C159.7,4.6 160,4 160.4,3.6 C160.8,3.2 161.4,3 162,3 C162.7,3 163.2,3.3 163.6,3.7 C164,4.1 164.2,4.7 164.1,5.4 L163.9,9.4 C163.9,10.1 163.6,10.6 163.2,11.1 C162.8,11.5 162.2,11.7 161.6,11.7 C160.9,11.7 160.4,11.4 160,11 C159.6,10.6 159.4,10 159.5,9.3 L159.7,5.3 Z" id="Shape"></path>
<path d="M172.7,14.6 L174.6,14.9 C174.8,14.9 174.9,14.8 175,14.6 L175.7,9.8 C175.7,9.7 175.8,9.7 175.8,9.7 L177.4,10 C177.5,10 177.5,10 177.5,10.1 L178.9,15.3 C179,15.5 179.1,15.6 179.2,15.6 L181.2,15.9 C181.3,15.9 181.4,15.9 181.4,15.9 C181.5,15.9 181.5,15.8 181.5,15.8 C181.5,15.7 181.5,15.7 181.5,15.6 L179.9,10.3 C179.9,10.3 179.9,10.2 179.9,10.2 C179.9,10.2 179.9,10.2 180,10.1 C180.8,10 181.4,9.6 181.9,9.1 C182.4,8.6 182.7,7.9 182.8,7.1 C182.9,6.4 182.9,5.7 182.6,5.1 C182.4,4.5 182,4 181.5,3.6 C181,3.2 180.3,2.9 179.6,2.8 L174.6,2 C174.4,2 174.3,2.1 174.3,2.3 L172.5,14.2 C172.4,14.4 172.5,14.6 172.7,14.6 Z M176.5,4.7 C176.5,4.6 176.6,4.6 176.6,4.6 L178.9,5 C179.4,5.1 179.8,5.3 180.1,5.6 C180.4,6 180.5,6.4 180.4,6.8 C180.3,7.3 180.1,7.6 179.7,7.9 C179.3,8.1 178.9,8.2 178.4,8.2 L176.1,7.8 C176,7.8 176,7.7 176,7.7 L176.5,4.7 Z" id="Shape"></path>
<path d="M189.6,17.4 C190.2,17.9 190.9,18.3 191.8,18.6 C192.7,18.8 193.5,18.9 194.3,18.7 C195.1,18.5 195.7,18.2 196.3,17.7 C196.9,17.2 197.2,16.5 197.5,15.7 L199.6,7.8 C199.7,7.6 199.6,7.5 199.4,7.4 L197.5,6.9 C197.3,6.8 197.2,6.9 197.1,7.1 L195,15 C194.8,15.6 194.5,16.1 194,16.3 C193.5,16.6 193,16.6 192.4,16.5 C191.8,16.3 191.3,16 191.1,15.5 C190.8,15 190.8,14.5 190.9,13.9 L193,6 C193.1,5.8 193,5.7 192.8,5.6 L191,5 C190.8,4.9 190.7,5 190.6,5.2 L188.5,13.1 C188.3,13.9 188.3,14.7 188.5,15.4 C188.7,16.2 189.1,16.8 189.6,17.4 Z" id="Shape"></path>
<path d="M204.5,22.4 C204.7,22.5 204.8,22.4 204.9,22.2 L207.8,14.9 C207.8,14.9 207.8,14.8 207.9,14.8 C207.9,14.8 208,14.8 208,14.9 L208.6,18.3 C208.6,18.5 208.7,18.6 208.9,18.6 L209.8,18.9 C209.9,19 210.1,18.9 210.2,18.8 L213,16.7 C213,16.7 213.1,16.7 213.1,16.7 C213.1,16.7 213.1,16.8 213.1,16.8 L210.2,24.1 C210.1,24.3 210.2,24.4 210.4,24.5 L212.2,25.2 C212.4,25.3 212.5,25.2 212.6,25 L217,13.8 C217.1,13.6 217,13.5 216.8,13.4 L215,12.7 C214.9,12.6 214.7,12.7 214.6,12.8 L210.6,15.7 C210.6,15.7 210.5,15.7 210.5,15.7 C210.5,15.7 210.5,15.7 210.4,15.6 L209.5,10.7 C209.5,10.5 209.4,10.4 209.2,10.4 L207.4,9.7 C207.2,9.6 207.1,9.7 207,9.9 L202.6,21.1 C202.5,21.3 202.6,21.4 202.8,21.5 L204.5,22.4 Z" id="Shape"></path>
<path d="M235.9,38.9 C237,39.6 238,40 239,39.9 C240,39.9 240.8,39.4 241.5,38.4 C242.3,37.3 242.4,36.1 241.8,35 C241.8,35 241.8,34.9 241.8,34.9 C241.8,34.9 241.8,34.9 241.9,34.9 C243,35.1 243.9,34.7 244.6,33.7 C245.9,31.8 245.4,30 243,28.4 L239.3,25.9 C239.1,25.8 239,25.8 238.9,26 L232.1,35.9 C232,36.1 232,36.2 232.2,36.3 L235.9,38.9 Z M239.9,29 C239.9,28.9 240,28.9 240.1,29 L241.8,30.2 C242.3,30.5 242.5,30.9 242.7,31.3 C242.8,31.7 242.7,32.1 242.5,32.5 C242.2,32.9 241.9,33.1 241.5,33.1 C241.1,33.1 240.7,33 240.2,32.7 L238.5,31.5 C238.4,31.5 238.4,31.4 238.5,31.3 L239.9,29 Z M237,33.2 C237,33.1 237.1,33.1 237.2,33.2 L239,34.5 C239.5,34.8 239.7,35.2 239.8,35.6 C239.9,36 239.8,36.4 239.5,36.8 C239.2,37.2 238.9,37.4 238.5,37.5 C238.1,37.6 237.6,37.4 237.2,37.1 L235.4,35.8 C235.3,35.8 235.3,35.7 235.4,35.6 L237,33.2 Z" id="Shape"></path>
<path d="M244.6,45.3 L250.8,50.6 C251,50.7 251.1,50.7 251.2,50.6 L252.2,49.4 C252.3,49.2 252.3,49.1 252.2,49 L247.8,45.2 C247.7,45.2 247.7,45.1 247.8,45 L249.7,42.8 C249.7,42.7 249.8,42.7 249.9,42.8 L252.8,45.3 C253,45.4 253.1,45.4 253.2,45.3 L254.2,44.1 C254.3,43.9 254.3,43.8 254.2,43.7 L251.3,41.2 C251.2,41.2 251.2,41.1 251.3,41 L253.1,38.9 C253.1,38.8 253.2,38.8 253.3,38.9 L257.7,42.7 C257.9,42.8 258,42.8 258.1,42.7 L259.1,41.5 C259.2,41.3 259.2,41.2 259.1,41.1 L252.9,35.8 C252.7,35.7 252.6,35.7 252.5,35.8 L244.7,44.9 C244.5,45.1 244.5,45.2 244.6,45.3 Z" id="Shape"></path>
<path d="M255.6,55.2 L256.9,56.6 C257,56.7 257.2,56.8 257.3,56.6 L260.8,53.3 C260.9,53.3 260.9,53.3 261,53.3 L262.1,54.5 C262.1,54.5 262.1,54.6 262.1,54.7 L260,59.7 C259.9,59.9 260,60 260.1,60.1 L261.5,61.6 C261.6,61.7 261.6,61.7 261.7,61.7 C261.8,61.7 261.8,61.7 261.9,61.7 C261.9,61.7 262,61.6 262,61.5 L264,56.3 C264,56.3 264,56.2 264,56.2 C264,56.2 264.1,56.2 264.1,56.2 C264.8,56.6 265.5,56.7 266.2,56.6 C266.9,56.5 267.6,56.2 268.2,55.6 C268.7,55.1 269.1,54.5 269.3,53.9 C269.5,53.3 269.5,52.6 269.4,52 C269.2,51.4 268.9,50.8 268.4,50.2 L264.9,46.5 C264.8,46.3 264.6,46.3 264.5,46.5 L255.7,54.8 C255.4,54.9 255.4,55.1 255.6,55.2 Z M262.4,51.8 L264.6,49.7 C264.7,49.7 264.7,49.7 264.8,49.7 L266.4,51.4 C266.7,51.8 266.9,52.2 266.9,52.6 C266.9,53 266.7,53.4 266.4,53.8 C266,54.1 265.7,54.3 265.2,54.2 C264.8,54.2 264.4,54 264,53.6 L262.4,51.9 C262.4,51.9 262.4,51.9 262.4,51.8 Z" id="Shape"></path>
<path d="M267.4,65.5 C267.1,66.2 267,67 267.2,67.8 C267.3,68.6 267.7,69.4 268.2,70.1 C268.8,70.8 269.4,71.4 270.1,71.7 C270.8,72 271.5,72.2 272.3,72.1 C273.1,72 273.8,71.7 274.5,71.1 L276.3,69.7 C276.5,69.6 276.5,69.4 276.4,69.3 L273.8,65.9 C273.7,65.7 273.5,65.7 273.4,65.8 L272.2,66.7 C272,66.8 272,67 272.1,67.1 L273.3,68.6 C273.3,68.7 273.3,68.7 273.3,68.8 L272.7,69.3 C272.2,69.7 271.8,69.8 271.3,69.7 C270.8,69.6 270.4,69.3 270,68.8 C269.6,68.3 269.4,67.7 269.5,67.2 C269.6,66.6 269.9,66.1 270.4,65.7 L273.7,63.2 C274.2,62.8 274.8,62.6 275.3,62.7 C275.9,62.8 276.3,63.1 276.7,63.6 C277.1,64.1 277.2,64.6 277.2,65.2 C277.1,65.7 276.9,66.2 276.4,66.5 L276.3,66.6 C276.3,66.6 276.3,66.7 276.3,66.7 C276.3,66.8 276.3,66.8 276.4,66.9 L277.6,68.4 C277.7,68.6 277.9,68.6 278,68.5 L278,68.5 C278.6,68 279,67.5 279.3,66.8 C279.6,66.1 279.6,65.4 279.5,64.6 C279.4,63.8 279,63.1 278.5,62.3 C277.9,61.6 277.3,61 276.6,60.7 C275.9,60.4 275.1,60.2 274.4,60.3 C273.6,60.4 272.9,60.7 272.2,61.2 L269,63.6 C268.2,64.1 267.7,64.7 267.4,65.5 Z" id="Shape"></path>
<path d="M276.4,77.9 C276,78.6 275.8,79.4 275.9,80.2 C275.9,81 276.2,81.8 276.7,82.6 C277.2,83.4 277.8,84 278.5,84.5 C279.2,84.9 279.9,85.1 280.7,85.1 C281.5,85.1 282.3,84.8 283.1,84.4 L286.4,82.4 C287.2,81.9 287.7,81.4 288.1,80.7 C288.5,80 288.7,79.3 288.6,78.4 C288.6,77.6 288.3,76.8 287.8,76 C287.3,75.2 286.7,74.6 286,74.2 C285.3,73.8 284.6,73.6 283.8,73.6 C283,73.6 282.2,73.8 281.5,74.3 L278.2,76.3 C277.3,76.6 276.8,77.2 276.4,77.9 Z M278.2,79.8 C278.4,79.2 278.7,78.8 279.3,78.4 L282.7,76.4 C283.3,76 283.9,75.9 284.5,76 C285.1,76.1 285.5,76.5 285.9,77 C286.2,77.6 286.3,78.2 286.2,78.7 C286,79.3 285.7,79.7 285.1,80.1 L281.7,82.1 C281.1,82.5 280.5,82.6 279.9,82.4 C279.3,82.3 278.9,81.9 278.5,81.3 C278.2,80.9 278.1,80.4 278.2,79.8 Z" id="Shape"></path>
<path d="M282.3,92.3 L283.1,94.1 C283.2,94.3 283.3,94.3 283.5,94.3 L290.6,91.1 C290.6,91.1 290.7,91.1 290.7,91.1 C290.7,91.1 290.7,91.2 290.7,91.2 L288.7,94.1 C288.6,94.2 288.6,94.4 288.7,94.5 L289.1,95.3 C289.2,95.4 289.3,95.5 289.4,95.5 L292.9,95.9 C293,95.9 293,95.9 293,96 C293,96 293,96.1 292.9,96.1 L285.8,99.3 C285.6,99.4 285.6,99.5 285.6,99.7 L286.4,101.5 C286.5,101.7 286.6,101.7 286.8,101.7 L297.8,96.7 C298,96.6 298,96.5 298,96.3 L297.2,94.5 C297.1,94.4 297,94.3 296.9,94.3 L292,93.6 C292,93.6 291.9,93.6 291.9,93.6 C291.9,93.6 291.9,93.5 291.9,93.5 L294.7,89.4 C294.8,89.3 294.8,89.1 294.7,89 L293.9,87.2 C293.8,87 293.7,87 293.5,87 L282.5,92 C282.3,92 282.2,92.1 282.3,92.3 Z" id="Shape"></path>
<path d="M288.9,107.9 L291.4,115.7 C291.5,115.9 291.6,116 291.8,115.9 L293.3,115.4 C293.5,115.3 293.6,115.2 293.5,115 L291.7,109.5 C291.7,109.4 291.7,109.4 291.8,109.4 L294.5,108.5 C294.6,108.5 294.6,108.5 294.6,108.6 L295.8,112.2 C295.9,112.4 296,112.5 296.2,112.4 L297.7,111.9 C297.9,111.8 298,111.7 297.9,111.5 L296.7,107.9 C296.7,107.8 296.7,107.8 296.8,107.8 L299.4,106.9 C299.5,106.9 299.5,106.9 299.5,107 L301.3,112.5 C301.4,112.7 301.5,112.8 301.7,112.7 L303.2,112.2 C303.4,112.1 303.5,112 303.4,111.8 L300.9,104 C300.8,103.8 300.7,103.7 300.5,103.8 L289.1,107.5 C288.9,107.6 288.8,107.7 288.9,107.9 Z" id="Shape"></path>
<path d="M293.1,122 L293.5,123.9 C293.5,124.1 293.7,124.2 293.9,124.1 L301.2,122.6 C301.2,122.6 301.3,122.6 301.3,122.6 C301.3,122.6 301.3,122.7 301.3,122.7 L294.8,128.7 C294.7,128.8 294.6,129 294.7,129.1 L295.1,130.9 C295.1,131.1 295.3,131.2 295.5,131.1 L307.3,128.6 C307.5,128.6 307.6,128.4 307.5,128.2 L307.1,126.3 C307.1,126.1 306.9,126 306.7,126.1 L299.5,127.6 C299.5,127.6 299.4,127.6 299.4,127.6 C299.4,127.6 299.4,127.5 299.4,127.5 L305.8,121.5 C305.9,121.4 306,121.3 305.9,121.1 L305.5,119.3 C305.5,119.1 305.3,119 305.1,119.1 L293.3,121.6 C293.1,121.7 293.1,121.8 293.1,122 Z" id="Shape"></path>
<path d="M298.3,145.7 C298.9,146 299.5,146.2 300.3,146.1 C301.1,146 301.7,145.8 302.1,145.3 C302.5,144.9 302.9,144.4 303,143.9 C303.2,143.4 303.4,142.7 303.6,141.8 C303.8,141 304,140.4 304.1,140 C304.2,139.6 304.4,139.3 304.6,139.1 C304.8,138.9 305,138.8 305.3,138.8 C305.7,138.8 306.1,138.9 306.3,139.2 C306.6,139.5 306.7,139.9 306.8,140.5 C306.9,141.2 306.7,141.8 306.4,142.2 C306.1,142.6 305.7,142.9 305.2,142.9 L305,142.9 C304.9,142.9 304.8,143 304.8,143.2 L305,145.1 C305,145.3 305.1,145.4 305.3,145.4 L305.5,145.4 C306.3,145.3 306.9,145.1 307.5,144.6 C308,144.1 308.4,143.5 308.7,142.8 C309,142.1 309,141.2 309,140.3 C308.9,139.5 308.7,138.7 308.4,138.1 C308,137.5 307.6,137 307,136.7 C306.4,136.4 305.8,136.3 305.1,136.3 C304.4,136.4 303.8,136.6 303.3,137.1 C302.8,137.5 302.5,138 302.3,138.6 C302.1,139.2 301.9,139.9 301.7,140.7 C301.5,141.4 301.3,142 301.2,142.3 C301.1,142.6 300.9,142.9 300.8,143.1 C300.6,143.3 300.4,143.4 300.1,143.5 C299.7,143.5 299.4,143.4 299.1,143.1 C298.8,142.8 298.6,142.4 298.6,141.7 C298.5,141 298.6,140.4 298.9,139.9 C299.2,139.4 299.6,139.2 300,139.1 L300.3,139.1 C300.5,139.1 300.5,139 300.5,138.8 L300.3,136.9 C300.3,136.7 300.2,136.6 300,136.6 L299.7,136.6 C298.9,136.7 298.3,136.9 297.8,137.4 C297.3,137.8 296.9,138.4 296.6,139.2 C296.4,139.9 296.3,140.8 296.4,141.7 C296.5,142.6 296.7,143.4 297.1,144.1 C297.3,144.8 297.7,145.3 298.3,145.7 Z" id="Shape"></path>
<path d="M309.6,152.6 C309.6,152.4 309.5,152.3 309.3,152.3 L297.3,152.5 C297.1,152.5 297,152.6 297,152.8 L297,154.7 C297,154.9 297.1,155 297.3,155 L309.3,154.8 C309.5,154.8 309.6,154.7 309.6,154.5 L309.6,152.6 Z" id="Shape"></path>
<path d="M308,162.5 C307.5,162.1 306.9,161.9 306.2,161.8 C305.5,161.7 304.8,161.9 304.3,162.2 C303.8,162.5 303.4,163 303,163.5 C302.7,164 302.3,164.7 302,165.5 C301.7,166.2 301.4,166.7 301.3,167 C301.2,167.3 300.9,167.6 300.7,167.7 C300.5,167.9 300.2,168 300,167.9 C299.6,167.9 299.3,167.7 299,167.4 C298.8,167.1 298.7,166.6 298.7,166 C298.7,165.3 299,164.7 299.3,164.3 C299.7,163.9 300.1,163.7 300.6,163.7 L300.9,163.7 C301.1,163.7 301.1,163.6 301.2,163.4 L301.3,161.5 C301.3,161.3 301.2,161.2 301,161.2 L300.7,161.2 C299.9,161.1 299.3,161.3 298.7,161.6 C298.1,161.9 297.6,162.5 297.3,163.1 C296.9,163.8 296.7,164.6 296.7,165.5 C296.6,166.4 296.7,167.3 297,168 C297.3,168.7 297.6,169.3 298.2,169.7 C298.7,170.1 299.4,170.4 300.1,170.4 C300.9,170.5 301.5,170.3 302,169.9 C302.5,169.5 302.9,169.1 303.2,168.7 C303.5,168.2 303.8,167.6 304.2,166.8 C304.5,166 304.8,165.5 305,165.1 C305.2,164.7 305.4,164.5 305.6,164.3 C305.8,164.1 306.1,164.1 306.4,164.1 C306.8,164.1 307.1,164.3 307.4,164.6 C307.6,164.9 307.7,165.4 307.7,166 C307.6,166.7 307.4,167.3 307,167.7 C306.6,168.1 306.2,168.3 305.7,168.2 L305.5,168.2 C305.4,168.2 305.3,168.3 305.3,168.5 L305.2,170.4 C305.2,170.6 305.3,170.7 305.5,170.7 L305.7,170.7 C306.5,170.8 307.2,170.6 307.8,170.2 C308.4,169.8 308.9,169.3 309.3,168.6 C309.7,167.9 309.9,167.1 310,166.2 C310.1,165.3 310,164.6 309.7,163.9 C308.9,163.4 308.5,162.9 308,162.5 Z" id="Shape"></path>
<path d="M300.2,185.3 C299.9,185 299.5,184.8 299.1,184.7 C298.7,184.6 298.3,184.6 297.9,184.8 C297.5,184.9 297.2,185.1 296.9,185.5 C296.6,185.8 296.4,186.2 296.3,186.6 C296.2,187 296.2,187.4 296.4,187.8 C296.5,188.2 296.8,188.5 297.1,188.8 C297.4,189.1 297.8,189.3 298.2,189.4 C298.6,189.5 299,189.5 299.4,189.3 C299.8,189.2 300.1,189 300.4,188.7 C300.7,188.4 300.9,188 301,187.6 C301.1,187.2 301.1,186.8 300.9,186.4 C300.7,185.9 300.5,185.6 300.2,185.3 Z" id="Shape"></path>
</g>
</svg>